<svg clip-rule="evenodd" fill-rule="evenodd" stroke-linecap="round" stroke-linejoin="round" stroke-miterlimit="10" viewBox="0 0 799 145" xmlns="http://www.w3.org/2000/svg"><g fill-rule="nonzero"><path d="m23.599 128.876h-21.144v-81.643c0 .09 0-15.408 15.465-20.569 13.958-4.476 23.285 4.541 23.306 4.515l69.709 75.381c3.499 2.16 4.927-.09 4.891-2.161v-77.734h21.344v81.061c-.106 6.907-5.809 15.47-13.908 18.809-8.291 3.221-17.397 3.195-28.19-5.885l-65.212-70.866c-1.709-1.852-6.185-2.057-6.261 1.564v77.529" fill="#231f20"/><path d="m150.866 26.664h21.346v73.234c-.063 7.801 6.454 7.801 12.925 7.827h94.766c3.955-.026 8.446-4.683 8.425-9.393.021-4.878-4.55-9.806-8.816-9.793h-61.684c-10.604.389-32.625-9.404-32.691-30.155.066-25.33 20.866-31.048 30.346-31.72h174.462v21.54h-43.667v80.672h-21.141v-80.672h-106.913c-10.179-.881-17.521 16.662-.787 19.198h65.6c9.854-.091 26.171 8.486 26.229 29.754-.058 21.551-12.704 31.746-26.229 31.72h-96.925c-16.004.026-21.734-3.608-27.417-9.005-5.242-5.188-6.125-8.096-7.829-18.796z" fill="#231f20"/><path d="m23.599 128.876h-21.144v-81.643c0 .09 0-15.408 15.465-20.569 13.958-4.476 23.285 4.541 23.306 4.515l69.709 75.381c3.499 2.16 4.927-.09 4.891-2.161v-77.734h21.344v81.061c-.106 6.907-5.809 15.47-13.908 18.809-8.291 3.221-17.397 3.195-28.19-5.885l-65.212-70.866c-1.709-1.852-6.185-2.057-6.261 1.564v77.529" fill="#231f20"/><path d="m150.866 26.664h21.346v73.234c-.063 7.801 6.454 7.801 12.925 7.827h94.766c3.955-.026 8.446-4.683 8.425-9.393.021-4.878-4.55-9.806-8.816-9.793h-61.684c-10.604.389-32.625-9.404-32.691-30.155.066-25.33 20.866-31.048 30.346-31.72h174.462v21.54h-43.667v80.672h-21.141v-80.672h-106.913c-10.179-.881-17.521 16.662-.787 19.198h65.6c9.854-.091 26.171 8.486 26.229 29.754-.058 21.551-12.704 31.746-26.229 31.72h-96.925c-16.004.026-21.734-3.608-27.417-9.005-5.242-5.188-6.125-8.096-7.829-18.796z" fill="#231f20"/><path d="m.176-.237h-.152c-.001.044.007.082.024.114s.039.058.068.079c.028.021.061.036.098.045.037.01.075.014.115.014.049 0 .092-.006.129-.017s.068-.027.093-.048c.025-.02.044-.045.056-.072.013-.028.019-.058.019-.091 0-.04-.009-.073-.025-.099-.017-.026-.037-.046-.06-.061s-.047-.027-.071-.034-.042-.012-.055-.014c-.045-.011-.081-.021-.109-.028s-.049-.015-.065-.022-.026-.015-.032-.024c-.005-.009-.008-.02-.008-.034 0-.015.003-.028.01-.038s.015-.018.026-.025c.01-.007.022-.011.035-.014s.025-.004.038-.004c.019 0 .037.002.053.005s.031.009.044.017.023.019.03.033c.008.014.012.032.014.053h.152c0-.041-.008-.077-.023-.106-.016-.029-.037-.053-.064-.072s-.057-.032-.092-.04c-.034-.008-.07-.012-.107-.012-.032 0-.064.004-.096.013s-.061.022-.086.04-.046.04-.061.068c-.016.027-.024.059-.024.096 0 .033.006.06.019.084.012.023.029.042.049.057s.043.028.068.037c.025.01.051.018.078.025.026.007.052.014.077.02s.048.013.068.021.036.018.048.03.019.028.019.047c0 .018-.005.033-.014.045s-.021.021-.035.027c-.014.007-.029.011-.045.013s-.031.004-.045.004c-.021 0-.041-.003-.06-.008s-.036-.013-.051-.023c-.014-.01-.026-.024-.035-.04-.009-.017-.013-.037-.013-.061z" fill="#12659c" transform="matrix(36 0 0 36 437.68100008 53.282)"/><path d="m.226-.378v-.214h.122c.018 0 .035.001.052.004s.031.008.044.015c.013.008.023.018.031.032s.011.032.011.055-.004.041-.011.055c-.008.014-.018.025-.031.032-.013.008-.027.013-.044.016s-.034.004-.052.004h-.122zm-.157-.336v.714h.157v-.256h.165c.045 0 .083-.007.114-.02s.057-.03.077-.051.034-.046.043-.074.013-.056.013-.084c0-.029-.004-.058-.013-.085s-.023-.052-.043-.073-.045-.039-.077-.051c-.031-.013-.069-.019-.114-.019h-.322z" fill="#12659c" transform="matrix(36 0 0 36 459.96500008 53.282)"/><path d="m.069-.714v.714h.542v-.132h-.385v-.175h.346v-.122h-.346v-.153h.377v-.132z" fill="#12659c" transform="matrix(36 0 0 36 482.89700008 53.282)"/><path d="m.545-.474h.152c-.005-.041-.016-.078-.034-.11s-.041-.059-.069-.081-.059-.038-.094-.049-.072-.017-.112-.017c-.055 0-.104.01-.148.029s-.08.046-.11.08-.053.074-.069.119c-.016.046-.024.095-.024.149 0 .052.008.1.024.145s.039.084.069.117.067.059.11.079c.044.019.093.028.148.028.044 0 .084-.007.121-.02s.069-.033.096-.058.049-.056.066-.092.027-.076.031-.121h-.152c-.006.048-.022.087-.049.116s-.065.044-.113.044c-.035 0-.065-.007-.09-.021s-.045-.032-.06-.054c-.015-.023-.027-.048-.034-.077-.007-.028-.011-.057-.011-.087 0-.031.004-.062.011-.091s.018-.056.034-.078c.015-.023.035-.041.06-.055s.055-.02.09-.02c.019 0 .038.003.055.009.018.006.034.015.047.026.014.011.026.025.035.04s.015.031.018.049z" fill="#12659c" transform="matrix(36 0 0 36 505.14500008 53.282)"/><path d="m533.22500008 27.578h5.652v25.704h-5.652z" fill="#12659c" stroke-width="36"/><path d="m.249-.276.093-.262h.002l.09.262zm.015-.438-.27.714h.158l.056-.159h.267l.054.159h.163l-.267-.714z" fill="#12659c" transform="matrix(36 0 0 36 540.28100008 53.282)"/><path d="m.069-.714v.714h.505v-.132h-.348v-.582h-.157z" fill="#12659c" transform="matrix(36 0 0 36 563.86100008 53.282)"/><path d="m.226-.378v-.214h.122c.018 0 .035.001.052.004s.031.008.044.015c.013.008.023.018.031.032s.011.032.011.055-.004.041-.011.055c-.008.014-.018.025-.031.032-.013.008-.027.013-.044.016s-.034.004-.052.004h-.122zm-.157-.336v.714h.157v-.256h.165c.045 0 .083-.007.114-.02s.057-.03.077-.051.034-.046.043-.074.013-.056.013-.084c0-.029-.004-.058-.013-.085s-.023-.052-.043-.073-.045-.039-.077-.051c-.031-.013-.069-.019-.114-.019h-.322z" fill="#12659c" transform="matrix(36 0 0 36 593.05700008 53.282)"/><path d="m.226-.391v-.201h.172c.036 0 .063.008.081.023.018.016.027.041.027.076 0 .036-.009.062-.027.078s-.045.024-.081.024zm-.157-.323v.714h.157v-.279h.157c.039 0 .068.009.085.026s.029.045.034.082c.004.029.007.059.009.09s.007.058.016.081h.157c-.007-.01-.013-.022-.017-.036s-.006-.03-.008-.046-.003-.032-.003-.047c-.001-.015-.001-.029-.002-.04-.001-.018-.004-.036-.008-.054s-.009-.035-.017-.05-.018-.028-.031-.039-.029-.019-.048-.025v-.002c.04-.016.069-.039.087-.07s.026-.067.026-.109c0-.027-.005-.053-.015-.077s-.024-.044-.042-.062-.04-.032-.066-.042-.054-.015-.086-.015h-.385z" fill="#12659c" transform="matrix(36 0 0 36 615.98900008 53.282)"/><path d="m.195-.354c0-.031.004-.062.011-.091s.018-.056.034-.078c.015-.023.035-.041.06-.055s.055-.02.09-.02.065.007.09.02c.025.014.045.032.06.055s.026.049.033.078.01.06.01.091c0 .03-.003.059-.01.087s-.018.054-.033.077-.035.041-.06.054c-.025.014-.055.021-.09.021s-.065-.007-.09-.021-.045-.032-.06-.054c-.015-.023-.027-.048-.034-.077-.007-.028-.011-.057-.011-.087zm-.157 0c0 .052.008.1.024.145s.039.084.069.117.067.059.11.079c.044.019.093.028.148.028s.105-.01.148-.029.08-.045.11-.079c.03-.033.053-.073.069-.117.016-.045.024-.093.024-.145 0-.053-.008-.103-.024-.149s-.039-.086-.069-.119c-.03-.034-.067-.061-.11-.08s-.093-.029-.148-.029-.104.01-.148.029-.08.046-.11.08-.053.074-.069.119c-.016.046-.024.095-.024.149z" fill="#12659c" transform="matrix(36 0 0 36 640.90100008 53.282)"/><path d="m.585-.081.016.081h.1v-.386h-.3v.117h.158c-.005.05-.021.088-.049.115-.028.026-.069.039-.121.039-.035 0-.065-.007-.09-.021s-.045-.032-.06-.054c-.015-.023-.027-.048-.034-.077-.007-.028-.011-.057-.011-.087 0-.031.004-.062.011-.091s.018-.056.034-.078c.015-.023.035-.041.06-.055s.055-.02.09-.02c.038 0 .07.01.097.03s.045.05.054.09h.15c-.004-.041-.015-.077-.033-.108s-.041-.058-.069-.079-.059-.037-.093-.048-.07-.016-.106-.016c-.055 0-.104.01-.148.029s-.08.046-.11.08-.053.074-.069.119c-.016.046-.024.095-.024.149 0 .052.008.1.024.145s.039.084.069.117.067.059.11.079c.044.019.093.028.148.028.035 0 .069-.007.103-.021s.065-.04.093-.076z" fill="#12659c" transform="matrix(36 0 0 36 667.82900008 53.282)"/><path d="m.226-.391v-.201h.172c.036 0 .063.008.081.023.018.016.027.041.027.076 0 .036-.009.062-.027.078s-.045.024-.081.024zm-.157-.323v.714h.157v-.279h.157c.039 0 .068.009.085.026s.029.045.034.082c.004.029.007.059.009.09s.007.058.016.081h.157c-.007-.01-.013-.022-.017-.036s-.006-.03-.008-.046-.003-.032-.003-.047c-.001-.015-.001-.029-.002-.04-.001-.018-.004-.036-.008-.054s-.009-.035-.017-.05-.018-.028-.031-.039-.029-.019-.048-.025v-.002c.04-.016.069-.039.087-.07s.026-.067.026-.109c0-.027-.005-.053-.015-.077s-.024-.044-.042-.062-.04-.032-.066-.042-.054-.015-.086-.015h-.385z" fill="#12659c" transform="matrix(36 0 0 36 694.07300008 53.282)"/><path d="m.249-.276.093-.262h.002l.09.262zm.015-.438-.27.714h.158l.056-.159h.267l.054.159h.163l-.267-.714z" fill="#12659c" transform="matrix(36 0 0 36 718.98500008 53.282)"/><path d="m.069-.714v.714h.147v-.501h.002l.175.501h.121l.175-.506h.002v.506h.147v-.714h-.221l-.158.491h-.002l-.167-.491z" fill="#12659c" transform="matrix(36 0 0 36 742.56500008 53.282)"/><path d="m.176-.237h-.152c-.001.044.007.082.024.114s.039.058.068.079c.028.021.061.036.098.045.037.01.075.014.115.014.049 0 .092-.006.129-.017s.068-.027.093-.048c.025-.02.044-.045.056-.072.013-.028.019-.058.019-.091 0-.04-.009-.073-.025-.099-.017-.026-.037-.046-.06-.061s-.047-.027-.071-.034-.042-.012-.055-.014c-.045-.011-.081-.021-.109-.028s-.049-.015-.065-.022-.026-.015-.032-.024c-.005-.009-.008-.02-.008-.034 0-.015.003-.028.01-.038s.015-.018.026-.025c.01-.007.022-.011.035-.014s.025-.004.038-.004c.019 0 .037.002.053.005s.031.009.044.017.023.019.03.033c.008.014.012.032.014.053h.152c0-.041-.008-.077-.023-.106-.016-.029-.037-.053-.064-.072s-.057-.032-.092-.04c-.034-.008-.07-.012-.107-.012-.032 0-.064.004-.096.013s-.061.022-.086.04-.046.04-.061.068c-.016.027-.024.059-.024.096 0 .033.006.06.019.084.012.023.029.042.049.057s.043.028.068.037c.025.01.051.018.078.025.026.007.052.014.077.02s.048.013.068.021.036.018.048.03.019.028.019.047c0 .018-.005.033-.014.045s-.021.021-.035.027c-.014.007-.029.011-.045.013s-.031.004-.045.004c-.021 0-.041-.003-.06-.008s-.036-.013-.051-.023c-.014-.01-.026-.024-.035-.04-.009-.017-.013-.037-.013-.061z" fill="#12659c" transform="matrix(36 0 0 36 774.13700008 53.282)"/><path d="m.102-.357c0-.039.005-.078.015-.115s.026-.071.048-.1c.022-.03.049-.053.083-.072.034-.018.075-.027.122-.027s.088.009.121.027c.034.018.061.042.083.072s.038.063.048.1.015.076.015.115-.005.077-.015.114c-.01.038-.026.071-.048.101s-.049.054-.083.072-.074.027-.121.027-.088-.009-.122-.027-.062-.042-.083-.072c-.022-.03-.038-.063-.048-.101s-.015-.076-.015-.114zm-.068 0c0 .049.007.096.021.141s.035.084.063.118.063.061.106.082c.042.02.091.03.147.03s.105-.01.147-.03.077-.048.105-.082.049-.073.063-.118.021-.092.021-.141-.007-.096-.021-.141-.035-.084-.063-.119c-.028-.034-.063-.062-.105-.082s-.091-.03-.147-.03-.105.01-.147.03-.078.048-.105.082c-.028.034-.049.074-.063.119s-.021.092-.021.141z" fill="#6d6e71" transform="matrix(36 0 0 36 436.543 88.36620008)"/><path d="m.072-.714v.714h.068v-.34h.342v-.058h-.342v-.258h.385v-.058z" fill="#6d6e71" transform="matrix(36 0 0 36 464.299 88.36620008)"/><path d="m.072-.714v.714h.068v-.34h.342v-.058h-.342v-.258h.385v-.058z" fill="#6d6e71" transform="matrix(36 0 0 36 484.711 88.36620008)"/><path d="m507.895 62.66220008h2.448v25.704h-2.448z" fill="#6d6e71" stroke-width="36"/><path d="m.594-.498h.068c-.005-.037-.016-.07-.033-.099-.018-.029-.04-.053-.066-.073s-.056-.035-.088-.044c-.032-.01-.066-.015-.1-.015-.056 0-.105.01-.147.03s-.078.048-.106.082-.049.074-.063.119-.021.092-.021.141.007.096.021.141.035.084.063.118.063.061.106.082c.042.02.091.03.147.03.042 0 .08-.007.114-.02s.064-.032.089-.057.046-.055.062-.09.026-.075.031-.119h-.068c-.003.032-.011.062-.023.09s-.028.052-.047.072c-.019.021-.042.037-.069.049s-.057.018-.09.018c-.047 0-.088-.009-.122-.027s-.062-.042-.083-.072c-.022-.03-.038-.063-.048-.101s-.015-.076-.015-.114c0-.039.005-.078.015-.115s.026-.071.048-.1c.022-.03.049-.053.083-.072.034-.018.075-.027.122-.027.026 0 .051.004.075.012s.045.019.065.033c.02.015.036.033.05.054.014.022.023.046.029.074z" fill="#6d6e71" transform="matrix(36 0 0 36 514.195 88.36620008)"/><path d="m.072-.714v.714h.498v-.058h-.43v-.282h.398v-.058h-.398v-.258h.425v-.058z" fill="#6d6e71" transform="matrix(36 0 0 36 540.619 88.36620008)"/></g><path d="m408.681 4.998v23l16.415 11-16.415 11v91" fill="none" stroke="#000" stroke-width="5"/></svg>